<?xml version="1.0" encoding="UTF-8"?>
<svg width="32px" height="43px" viewBox="0 0 32 43" version="1.1" xmlns="http://www.w3.org/2000/svg" xmlns:xlink="http://www.w3.org/1999/xlink">
    <!-- Generator: Sketch 46 (44423) - http://www.bohemiancoding.com/sketch -->
    <title>notary-n-wht@3x</title>
    <desc>Created with Sketch.</desc>
    <defs></defs>
    <g id="Page-1" stroke="none" stroke-width="1" fill="none" fill-rule="evenodd">
        <g id="Artboard" transform="translate(-522.000000, -153.000000)" fill="#000000">
            <g id="notary-n-wht" transform="translate(522.000000, 153.000000)">
                <path d="M19,18 L13,18 L13,30 L10,30 L10,17.5 L10,15 L22,15 L22,17.5 L22,30 L19,30 L19,18 Z M31,43 L2,43 L2,41 L30,41 L30,2 L2,2 L2,0 L32,0 L32,1 L32,43 L31,43 Z M0,0 L2,0 L2,43 L0,43 L0,0 Z" id="Combined-Shape"></path>
            </g>
        </g>
    </g>
</svg>