<?xml version="1.0" encoding="UTF-8"?>
<svg width="101px" height="31px" viewBox="0 0 101 31" version="1.1" xmlns="http://www.w3.org/2000/svg" xmlns:xlink="http://www.w3.org/1999/xlink">
    <!-- Generator: Sketch 46 (44423) - http://www.bohemiancoding.com/sketch -->
    <title>notary-wth@3x</title>
    <desc>Created with Sketch.</desc>
    <defs></defs>
    <g id="Page-1" stroke="none" stroke-width="1" fill="none" fill-rule="evenodd">
        <g id="Artboard" transform="translate(-364.000000, -159.000000)" fill="#000000">
            <g id="notary-wth" transform="translate(364.000000, 159.000000)">
                <path d="M9,23 L3,23 L3,28 L21,28 L21,23 L15,23 L15,11 L9,11 L9,23 Z M64,20 L55,20 L55,17 L64,17 L64,20 Z M67,20.5 L67,11 L64,11 L64,14 L53.5,14 L52,14 L52,20.5 L52,23 L67,23 L67,20.5 Z M95,25 L23,25 L23,28 L95.5,28 L98,28 L98,8 L95,8 L95,20 L86,20 L86,8 L83,8 L83,21.5 L83,23 L95,23 L95,25 Z M43,8 L40,8 L40,11 L43,11 L43,23 L46,23 L46,11 L67,11 L67,8 L46,8 L46,3 L43,3 L43,8 Z M0,0 L101,0 L101,31 L0,31 L0,0 Z M3,3 L3,8 L21,8 L21,3 L3,3 Z M23,8 L23,23 L26,23 L26,8 L23,8 Z M35,8 L35,23 L38,23 L38,8 L35,8 Z M26,20 L26,23 L35,23 L35,20 L26,20 Z M26,8 L26,11 L35,11 L35,8 L26,8 Z M46,20 L46,23 L49,23 L49,20 L46,20 Z M69,8 L69,11 L81,11 L81,8 L69,8 Z M69,11 L69,23 L72,23 L72,11 L69,11 Z M3,8 L3,23 L6,23 L6,8 L3,8 Z M18,8 L18,23 L21,23 L21,8 L18,8 Z" id="Combined-Shape"></path>
            </g>
        </g>
    </g>
</svg>